<svg width="42" height="42" viewBox="0 0 42 42" fill="none" xmlns="http://www.w3.org/2000/svg">
<path fill-rule="evenodd" clip-rule="evenodd" d="M40.5245 10.1374L31.8624 1.4753C31.12 0.732841 30.13 0.732841 29.3876 1.4753L20.7255 10.1374C19.983 10.8798 19.983 11.8698 20.7255 12.6122L29.3876 21.2743C30.13 22.0168 31.12 22.0168 31.8624 21.2743L40.5245 12.6122C41.267 11.8698 41.267 10.8798 40.5245 10.1374ZM5.25 3.49989H17.5C18.55 3.49989 19.25 4.19989 19.25 5.24989V17.4999C19.25 18.5499 18.55 19.2499 17.5 19.2499H5.25C4.2 19.2499 3.5 18.5499 3.5 17.4999V5.24989C3.5 4.19989 4.2 3.49989 5.25 3.49989ZM7 15.7499H15.75V6.99989H7V15.7499ZM24.4378 11.3747L30.625 17.5619L36.8122 11.3747L30.625 5.18751L24.4378 11.3747ZM24.5 22.7499C23.45 22.7499 22.75 23.4499 22.75 24.4999V36.7499C22.75 37.7999 23.45 38.4999 24.5 38.4999H36.75C37.8 38.4999 38.5 37.7999 38.5 36.7499V24.4999C38.5 23.4499 37.8 22.7499 36.75 22.7499H24.5ZM26.25 26.2499V34.9999H35V26.2499H26.25ZM17.5 22.7499H5.25C4.2 22.7499 3.5 23.4499 3.5 24.4999V36.7499C3.5 37.7999 4.2 38.4999 5.25 38.4999H17.5C18.55 38.4999 19.25 37.7999 19.25 36.7499V24.4999C19.25 23.4499 18.55 22.7499 17.5 22.7499ZM7 34.9999H15.75V26.2499H7V34.9999Z" fill="#7367F0"/>
<mask id="mask0_341_6127" style="mask-type:luminance" maskUnits="userSpaceOnUse" x="3" y="0" width="39" height="39">
<path fill-rule="evenodd" clip-rule="evenodd" d="M40.5245 10.1378L31.8624 1.47579C31.12 0.73333 30.13 0.73333 29.3876 1.47579L20.7255 10.1378C19.983 10.8803 19.983 11.8703 20.7255 12.6127L29.3876 21.2748C30.13 22.0172 31.12 22.0172 31.8624 21.2748L40.5245 12.6127C41.267 11.8703 41.267 10.8803 40.5245 10.1378ZM5.25 3.49995H17.5C18.55 3.49995 19.25 4.19995 19.25 5.24995V17.5C19.25 18.55 18.55 19.25 17.5 19.25H5.25C4.2 19.25 3.5 18.55 3.5 17.5V5.24995C3.5 4.19995 4.2 3.49995 5.25 3.49995ZM7 15.75H15.75V6.99995H7V15.75ZM24.4378 11.3752L30.625 17.5624L36.8122 11.3752L30.625 5.188L24.4378 11.3752ZM24.5 22.75C23.45 22.75 22.75 23.45 22.75 24.5V36.75C22.75 37.7999 23.45 38.5 24.5 38.5H36.75C37.8 38.5 38.5 37.7999 38.5 36.75V24.5C38.5 23.45 37.8 22.75 36.75 22.75H24.5ZM26.25 26.25V35H35V26.25H26.25ZM17.5 22.75H5.25C4.2 22.75 3.5 23.45 3.5 24.5V36.75C3.5 37.7999 4.2 38.5 5.25 38.5H17.5C18.55 38.5 19.25 37.7999 19.25 36.75V24.5C19.25 23.45 18.55 22.75 17.5 22.75ZM7 35H15.75V26.25H7V35Z" fill="white"/>
</mask>
<g mask="url(#mask0_341_6127)">
<rect width="42" height="42" fill="#7367F0"/>
</g>
</svg>
