<svg width="14" height="14" viewBox="0 0 14 14" fill="none" xmlns="http://www.w3.org/2000/svg">
<path fill-rule="evenodd" clip-rule="evenodd" d="M7 0.583496C3.44166 0.583496 0.583328 3.44183 0.583328 7.00016C0.583328 10.5585 3.44166 13.4168 7 13.4168C10.5583 13.4168 13.4167 10.5585 13.4167 7.00016C13.4167 3.44183 10.5583 0.583496 7 0.583496ZM12.1917 6.41683H9.85833C9.74166 4.7835 9.21666 3.26683 8.28333 1.92516C10.3833 2.45016 11.9583 4.2585 12.1917 6.41683ZM8.75 7.5835H5.30833C5.42499 9.1585 6.00833 10.6752 7.05833 11.9002C7.99166 10.6752 8.57499 9.1585 8.75 7.5835ZM5.30833 6.41683C5.48333 4.84183 6.06666 3.32516 6.99999 2.10016C7.99166 3.3835 8.575 4.90016 8.69166 6.41683H5.30833ZM4.14166 6.41683C4.25833 4.7835 4.78333 3.26683 5.65833 1.92516C3.61666 2.45016 2.04166 4.2585 1.80833 6.41683H4.14166ZM1.80833 7.5835H4.14166C4.25833 9.21683 4.78333 10.7335 5.71666 12.0752C3.61666 11.5502 2.04166 9.74183 1.80833 7.5835ZM9.91666 7.5835C9.74166 9.21683 9.21666 10.7335 8.34166 12.0752C10.3833 11.5502 11.9583 9.74183 12.25 7.5835H9.91666Z" fill="black"/>
<mask id="mask0_341_5970" style="mask-type:luminance" maskUnits="userSpaceOnUse" x="0" y="0" width="14" height="14">
<path fill-rule="evenodd" clip-rule="evenodd" d="M7 0.583496C3.44166 0.583496 0.583328 3.44183 0.583328 7.00016C0.583328 10.5585 3.44166 13.4168 7 13.4168C10.5583 13.4168 13.4167 10.5585 13.4167 7.00016C13.4167 3.44183 10.5583 0.583496 7 0.583496ZM12.1917 6.41683H9.85833C9.74166 4.7835 9.21666 3.26683 8.28333 1.92516C10.3833 2.45016 11.9583 4.2585 12.1917 6.41683ZM8.75 7.5835H5.30833C5.42499 9.1585 6.00833 10.6752 7.05833 11.9002C7.99166 10.6752 8.57499 9.1585 8.75 7.5835ZM5.30833 6.41683C5.48333 4.84183 6.06666 3.32516 6.99999 2.10016C7.99166 3.3835 8.575 4.90016 8.69166 6.41683H5.30833ZM4.14166 6.41683C4.25833 4.7835 4.78333 3.26683 5.65833 1.92516C3.61666 2.45016 2.04166 4.2585 1.80833 6.41683H4.14166ZM1.80833 7.5835H4.14166C4.25833 9.21683 4.78333 10.7335 5.71666 12.0752C3.61666 11.5502 2.04166 9.74183 1.80833 7.5835ZM9.91666 7.5835C9.74166 9.21683 9.21666 10.7335 8.34166 12.0752C10.3833 11.5502 11.9583 9.74183 12.25 7.5835H9.91666Z" fill="white"/>
</mask>
<g mask="url(#mask0_341_5970)">
<rect width="14" height="14" fill="#BABFC7"/>
</g>
</svg>
