<svg width="14" height="14" viewBox="0 0 14 14" fill="none" xmlns="http://www.w3.org/2000/svg">
<path fill-rule="evenodd" clip-rule="evenodd" d="M12.8966 6.30919L7.92728 1.33985C7.81172 1.22429 7.69615 1.1665 7.5228 1.1665H1.7445C1.3978 1.1665 1.16667 1.39764 1.16667 1.74433V7.52264C1.16667 7.69599 1.22445 7.81155 1.34002 7.92712L6.30936 12.8965C6.65606 13.2432 7.06054 13.4165 7.5228 13.4165C7.98507 13.4165 8.44733 13.2432 8.73625 12.8965L12.8966 8.73608C13.59 8.04268 13.59 7.00259 12.8966 6.30919ZM12.0877 7.92712L7.92729 12.0875C7.69615 12.3186 7.34945 12.3186 7.11832 12.0875L2.32233 7.2915V2.32216H7.29167L12.0877 7.11815C12.3188 7.34929 12.3188 7.69599 12.0877 7.92712ZM5.21148 4.63349C5.21148 4.46014 5.1537 4.34457 5.03813 4.229C4.98035 4.17122 4.92257 4.11344 4.86479 4.11344C4.63365 3.99787 4.40252 4.05566 4.22917 4.229C4.11361 4.34457 4.05582 4.46014 4.05582 4.63349C4.05582 4.69127 4.05582 4.80683 4.11361 4.86462C4.11361 4.9224 4.17139 4.98018 4.22917 5.03797C4.34474 5.15353 4.4603 5.21132 4.63365 5.21132C4.807 5.21132 4.92257 5.15353 5.03813 5.03797C5.1537 4.9224 5.21148 4.80683 5.21148 4.63349Z" fill="black"/>
<mask id="mask0_341_5979" style="mask-type:luminance" maskUnits="userSpaceOnUse" x="1" y="1" width="13" height="13">
<path fill-rule="evenodd" clip-rule="evenodd" d="M12.8966 6.30919L7.92728 1.33985C7.81172 1.22429 7.69615 1.1665 7.5228 1.1665H1.7445C1.3978 1.1665 1.16667 1.39764 1.16667 1.74433V7.52264C1.16667 7.69599 1.22445 7.81155 1.34002 7.92712L6.30936 12.8965C6.65606 13.2432 7.06054 13.4165 7.5228 13.4165C7.98507 13.4165 8.44733 13.2432 8.73625 12.8965L12.8966 8.73608C13.59 8.04268 13.59 7.00259 12.8966 6.30919ZM12.0877 7.92712L7.92729 12.0875C7.69615 12.3186 7.34945 12.3186 7.11832 12.0875L2.32233 7.2915V2.32216H7.29167L12.0877 7.11815C12.3188 7.34929 12.3188 7.69599 12.0877 7.92712ZM5.21148 4.63349C5.21148 4.46014 5.1537 4.34457 5.03813 4.229C4.98035 4.17122 4.92257 4.11344 4.86479 4.11344C4.63365 3.99787 4.40252 4.05566 4.22917 4.229C4.11361 4.34457 4.05582 4.46014 4.05582 4.63349C4.05582 4.69127 4.05582 4.80683 4.11361 4.86462C4.11361 4.9224 4.17139 4.98018 4.22917 5.03797C4.34474 5.15353 4.4603 5.21132 4.63365 5.21132C4.807 5.21132 4.92257 5.15353 5.03813 5.03797C5.1537 4.9224 5.21148 4.80683 5.21148 4.63349Z" fill="white"/>
</mask>
<g mask="url(#mask0_341_5979)">
<rect width="14" height="14" fill="#BABFC7"/>
</g>
</svg>
