<svg width="14" height="14" viewBox="0 0 14 14" fill="none" xmlns="http://www.w3.org/2000/svg">
<path fill-rule="evenodd" clip-rule="evenodd" d="M4.08333 4.08317C4.08333 2.44984 5.36667 1.1665 7 1.1665C8.63333 1.1665 9.91667 2.44984 9.91667 4.08317C9.91667 5.7165 8.63333 6.99984 7 6.99984C5.36667 6.99984 4.08333 5.7165 4.08333 4.08317ZM12.25 11.0832V12.2498C12.25 12.5998 12.0167 12.8332 11.6667 12.8332C11.3167 12.8332 11.0833 12.5998 11.0833 12.2498V11.0832C11.0833 10.0915 10.325 9.33317 9.33333 9.33317H4.66667C3.675 9.33317 2.91667 10.0915 2.91667 11.0832V12.2498C2.91667 12.5998 2.68333 12.8332 2.33333 12.8332C1.98333 12.8332 1.75 12.5998 1.75 12.2498V11.0832C1.75 9.44984 3.03333 8.1665 4.66667 8.1665H9.33333C10.9667 8.1665 12.25 9.44984 12.25 11.0832ZM7 5.83317C6.00833 5.83317 5.25 5.07484 5.25 4.08317C5.25 3.0915 6.00833 2.33317 7 2.33317C7.99167 2.33317 8.75 3.0915 8.75 4.08317C8.75 5.07484 7.99167 5.83317 7 5.83317Z" fill="black"/>
<mask id="mask0_341_5962" style="mask-type:luminance" maskUnits="userSpaceOnUse" x="1" y="1" width="12" height="12">
<path fill-rule="evenodd" clip-rule="evenodd" d="M4.08333 4.08317C4.08333 2.44984 5.36667 1.1665 7 1.1665C8.63333 1.1665 9.91667 2.44984 9.91667 4.08317C9.91667 5.7165 8.63333 6.99984 7 6.99984C5.36667 6.99984 4.08333 5.7165 4.08333 4.08317ZM12.25 11.0832V12.2498C12.25 12.5998 12.0167 12.8332 11.6667 12.8332C11.3167 12.8332 11.0833 12.5998 11.0833 12.2498V11.0832C11.0833 10.0915 10.325 9.33317 9.33333 9.33317H4.66667C3.675 9.33317 2.91667 10.0915 2.91667 11.0832V12.2498C2.91667 12.5998 2.68333 12.8332 2.33333 12.8332C1.98333 12.8332 1.75 12.5998 1.75 12.2498V11.0832C1.75 9.44984 3.03333 8.1665 4.66667 8.1665H9.33333C10.9667 8.1665 12.25 9.44984 12.25 11.0832ZM7 5.83317C6.00833 5.83317 5.25 5.07484 5.25 4.08317C5.25 3.0915 6.00833 2.33317 7 2.33317C7.99167 2.33317 8.75 3.0915 8.75 4.08317C8.75 5.07484 7.99167 5.83317 7 5.83317Z" fill="white"/>
</mask>
<g mask="url(#mask0_341_5962)">
<rect width="14" height="14" fill="#BABFC7"/>
</g>
</svg>
