<svg width="14" height="14" viewBox="0 0 14 14" fill="none" xmlns="http://www.w3.org/2000/svg">
<path d="M10.9083 5.65817L7.40833 9.15817C7.29167 9.27484 7.175 9.33317 7 9.33317C6.825 9.33317 6.70833 9.27484 6.59167 9.15817L3.09167 5.65817C2.85833 5.42484 2.85833 5.07484 3.09167 4.8415C3.325 4.60817 3.675 4.60817 3.90833 4.8415L7 7.93317L10.0917 4.8415C10.325 4.60817 10.675 4.60817 10.9083 4.8415C11.1417 5.07484 11.1417 5.42484 10.9083 5.65817Z" fill="black"/>
<mask id="mask0_341_5972" style="mask-type:luminance" maskUnits="userSpaceOnUse" x="2" y="4" width="10" height="6">
<path d="M10.9083 5.65817L7.40833 9.15817C7.29167 9.27484 7.175 9.33317 7 9.33317C6.825 9.33317 6.70833 9.27484 6.59167 9.15817L3.09167 5.65817C2.85833 5.42484 2.85833 5.07484 3.09167 4.8415C3.325 4.60817 3.675 4.60817 3.90833 4.8415L7 7.93317L10.0917 4.8415C10.325 4.60817 10.675 4.60817 10.9083 4.8415C11.1417 5.07484 11.1417 5.42484 10.9083 5.65817Z" fill="white"/>
</mask>
<g mask="url(#mask0_341_5972)">
<rect width="14" height="14" fill="#BABFC7"/>
</g>
</svg>
