<svg width="64" height="64" viewBox="0 0 64 64" fill="none" xmlns="http://www.w3.org/2000/svg">
<path fill-rule="evenodd" clip-rule="evenodd" d="M61.3332 45.3332C61.3332 46.9332 60.2665 47.9998 58.6665 47.9998H5.33317C3.73317 47.9998 2.6665 46.9332 2.6665 45.3332C2.6665 43.7332 3.73317 42.6665 5.33317 42.6665C8.2665 42.6665 10.6665 40.2665 10.6665 37.3332V23.9998C10.6665 12.2665 20.2665 2.6665 31.9998 2.6665C43.7332 2.6665 53.3332 12.2665 53.3332 23.9998V37.3332C53.3332 40.2665 55.7332 42.6665 58.6665 42.6665C60.2665 42.6665 61.3332 43.7332 61.3332 45.3332ZM38.9332 57.3332C37.3332 59.9998 34.6665 61.3332 31.9998 61.3332C30.6665 61.3332 29.3332 61.0665 27.9998 60.2665C26.6665 59.4665 25.8665 58.6665 25.0665 57.3332C24.2665 55.9998 24.7998 54.3998 26.1332 53.5998C27.4665 52.7998 29.0665 53.3332 29.8665 54.6665C29.9472 54.7472 30.028 54.8524 30.1161 54.9673C30.3191 55.2317 30.5613 55.5472 30.9332 55.7332C32.2665 56.5332 33.8665 55.9998 34.6665 54.6665C35.4665 53.3332 37.0665 53.0665 38.3998 53.5998C39.7332 54.1332 39.7332 55.9998 38.9332 57.3332ZM47.9998 37.3332C47.9998 39.1998 48.5332 41.0665 49.3332 42.6665H14.6665C15.4665 41.0665 15.9998 39.1998 15.9998 37.3332V23.9998C15.9998 15.1998 23.1998 7.99984 31.9998 7.99984C40.7998 7.99984 47.9998 15.1998 47.9998 23.9998V37.3332Z" fill="black"/>
<mask id="mask0_341_6620" style="mask-type:luminance" maskUnits="userSpaceOnUse" x="2" y="2" width="60" height="60">
<path fill-rule="evenodd" clip-rule="evenodd" d="M61.3332 45.3332C61.3332 46.9332 60.2665 47.9998 58.6665 47.9998H5.33317C3.73317 47.9998 2.6665 46.9332 2.6665 45.3332C2.6665 43.7332 3.73317 42.6665 5.33317 42.6665C8.2665 42.6665 10.6665 40.2665 10.6665 37.3332V23.9998C10.6665 12.2665 20.2665 2.6665 31.9998 2.6665C43.7332 2.6665 53.3332 12.2665 53.3332 23.9998V37.3332C53.3332 40.2665 55.7332 42.6665 58.6665 42.6665C60.2665 42.6665 61.3332 43.7332 61.3332 45.3332ZM38.9332 57.3332C37.3332 59.9998 34.6665 61.3332 31.9998 61.3332C30.6665 61.3332 29.3332 61.0665 27.9998 60.2665C26.6665 59.4665 25.8665 58.6665 25.0665 57.3332C24.2665 55.9998 24.7998 54.3998 26.1332 53.5998C27.4665 52.7998 29.0665 53.3332 29.8665 54.6665C29.9472 54.7472 30.028 54.8524 30.1161 54.9673C30.3191 55.2317 30.5613 55.5472 30.9332 55.7332C32.2665 56.5332 33.8665 55.9998 34.6665 54.6665C35.4665 53.3332 37.0665 53.0665 38.3998 53.5998C39.7332 54.1332 39.7332 55.9998 38.9332 57.3332ZM47.9998 37.3332C47.9998 39.1998 48.5332 41.0665 49.3332 42.6665H14.6665C15.4665 41.0665 15.9998 39.1998 15.9998 37.3332V23.9998C15.9998 15.1998 23.1998 7.99984 31.9998 7.99984C40.7998 7.99984 47.9998 15.1998 47.9998 23.9998V37.3332Z" fill="white"/>
</mask>
<g mask="url(#mask0_341_6620)">
<rect width="64" height="64" fill="#B4B7BD"/>
</g>
</svg>
