<svg width="42" height="42" viewBox="0 0 42 42" fill="none" xmlns="http://www.w3.org/2000/svg">
<path fill-rule="evenodd" clip-rule="evenodd" d="M8.75 3.5H33.25C36.225 3.5 38.5 5.775 38.5 8.75V26.25C38.5 29.225 36.225 31.5 33.25 31.5H12.95L6.475 37.975C6.125 38.325 5.775 38.5 5.25 38.5C5.075 38.5 4.725 38.5 4.55 38.325C3.85 38.15 3.5 37.45 3.5 36.75V8.75C3.5 5.775 5.775 3.5 8.75 3.5ZM33.25 28C34.3 28 35 27.3 35 26.25V8.75C35 7.7 34.3 7 33.25 7H8.75C7.7 7 7 7.7 7 8.75V32.55L11.025 28.525C11.375 28.175 11.725 28 12.25 28H33.25Z" fill="black"/>
<mask id="mask0_341_6151" style="mask-type:luminance" maskUnits="userSpaceOnUse" x="3" y="3" width="36" height="36">
<path fill-rule="evenodd" clip-rule="evenodd" d="M8.75 3.5H33.25C36.225 3.5 38.5 5.775 38.5 8.75V26.25C38.5 29.225 36.225 31.5 33.25 31.5H12.95L6.475 37.975C6.125 38.325 5.775 38.5 5.25 38.5C5.075 38.5 4.725 38.5 4.55 38.325C3.85 38.15 3.5 37.45 3.5 36.75V8.75C3.5 5.775 5.775 3.5 8.75 3.5ZM33.25 28C34.3 28 35 27.3 35 26.25V8.75C35 7.7 34.3 7 33.25 7H8.75C7.7 7 7 7.7 7 8.75V32.55L11.025 28.525C11.375 28.175 11.725 28 12.25 28H33.25Z" fill="white"/>
</mask>
<g mask="url(#mask0_341_6151)">
<rect width="42" height="42" fill="#D0D2D6"/>
</g>
</svg>
