<svg width="168" height="64" viewBox="0 0 168 64" fill="none" xmlns="http://www.w3.org/2000/svg">
<path fill-rule="evenodd" clip-rule="evenodd" d="M62.6667 16.2665C61.8667 15.7332 60.8 15.9998 60 16.5332L45.3333 26.9332V18.6665C45.3333 14.1332 41.8667 10.6665 37.3333 10.6665H8C3.46667 10.6665 0 14.1332 0 18.6665V45.3332C0 49.8665 3.46667 53.3332 8 53.3332H37.3333C41.8667 53.3332 45.3333 49.8665 45.3333 45.3332V37.0665L59.7333 47.4665C60.2667 47.7332 60.8 47.9998 61.3333 47.9998C61.8667 47.9998 62.1333 47.9998 62.6667 47.7332C63.4667 47.1998 64 46.3998 64 45.3332V18.6665C64 17.5998 63.4667 16.7998 62.6667 16.2665ZM39.9997 45.3333C39.9997 46.9333 38.933 48 37.333 48H7.99967C6.39967 48 5.33301 46.9333 5.33301 45.3333V18.6667C5.33301 17.0667 6.39967 16 7.99967 16H37.333C38.933 16 39.9997 17.0667 39.9997 18.6667V45.3333ZM47.2002 31.9996L58.6669 40.2662V23.7329L47.2002 31.9996Z" fill="black"/>
<mask id="mask0_341_6464" style="mask-type:luminance" maskUnits="userSpaceOnUse" x="0" y="10" width="64" height="44">
<path fill-rule="evenodd" clip-rule="evenodd" d="M62.6667 16.2665C61.8667 15.7332 60.8 15.9998 60 16.5332L45.3333 26.9332V18.6665C45.3333 14.1332 41.8667 10.6665 37.3333 10.6665H8C3.46667 10.6665 0 14.1332 0 18.6665V45.3332C0 49.8665 3.46667 53.3332 8 53.3332H37.3333C41.8667 53.3332 45.3333 49.8665 45.3333 45.3332V37.0665L59.7333 47.4665C60.2667 47.7332 60.8 47.9998 61.3333 47.9998C61.8667 47.9998 62.1333 47.9998 62.6667 47.7332C63.4667 47.1998 64 46.3998 64 45.3332V18.6665C64 17.5998 63.4667 16.7998 62.6667 16.2665ZM39.9997 45.3333C39.9997 46.9333 38.933 48 37.333 48H7.99967C6.39967 48 5.33301 46.9333 5.33301 45.3333V18.6667C5.33301 17.0667 6.39967 16 7.99967 16H37.333C38.933 16 39.9997 17.0667 39.9997 18.6667V45.3333ZM47.2002 31.9996L58.6669 40.2662V23.7329L47.2002 31.9996Z" fill="white"/>
</mask>
<g mask="url(#mask0_341_6464)">
<rect width="64" height="64" fill="#B4B7BD"/>
</g>
<path fill-rule="evenodd" clip-rule="evenodd" d="M136 42.6667C141.866 42.6667 146.666 37.8667 146.666 32V10.6667C146.666 4.8 141.866 0 136 0C130.133 0 125.333 4.8 125.333 10.6667V32C125.333 37.8667 130.133 42.6667 136 42.6667ZM130.666 10.6667C130.666 7.73333 133.066 5.33333 135.999 5.33333C138.933 5.33333 141.333 7.73333 141.333 10.6667V32C141.333 34.9333 138.933 37.3333 135.999 37.3333C133.066 37.3333 130.666 34.9333 130.666 32V10.6667ZM157.333 32V26.6667C157.333 25.0667 156.266 24 154.666 24C153.066 24 151.999 25.0667 151.999 26.6667V32C151.999 40.8 144.799 48 135.999 48C127.199 48 119.999 40.8 119.999 32V26.6667C119.999 25.0667 118.933 24 117.333 24C115.733 24 114.666 25.0667 114.666 26.6667V32C114.666 42.6667 122.933 51.7333 133.333 53.0667V58.6667H125.333C123.733 58.6667 122.666 59.7333 122.666 61.3333C122.666 62.9333 123.733 64 125.333 64H146.666C148.266 64 149.333 62.9333 149.333 61.3333C149.333 59.7333 148.266 58.6667 146.666 58.6667H138.666V53.0667C149.066 51.7333 157.333 42.9333 157.333 32Z" fill="black"/>
<mask id="mask1_341_6464" style="mask-type:luminance" maskUnits="userSpaceOnUse" x="114" y="0" width="44" height="64">
<path fill-rule="evenodd" clip-rule="evenodd" d="M136 42.6667C141.866 42.6667 146.666 37.8667 146.666 32V10.6667C146.666 4.8 141.866 0 136 0C130.133 0 125.333 4.8 125.333 10.6667V32C125.333 37.8667 130.133 42.6667 136 42.6667ZM130.666 10.6667C130.666 7.73333 133.066 5.33333 135.999 5.33333C138.933 5.33333 141.333 7.73333 141.333 10.6667V32C141.333 34.9333 138.933 37.3333 135.999 37.3333C133.066 37.3333 130.666 34.9333 130.666 32V10.6667ZM157.333 32V26.6667C157.333 25.0667 156.266 24 154.666 24C153.066 24 151.999 25.0667 151.999 26.6667V32C151.999 40.8 144.799 48 135.999 48C127.199 48 119.999 40.8 119.999 32V26.6667C119.999 25.0667 118.933 24 117.333 24C115.733 24 114.666 25.0667 114.666 26.6667V32C114.666 42.6667 122.933 51.7333 133.333 53.0667V58.6667H125.333C123.733 58.6667 122.666 59.7333 122.666 61.3333C122.666 62.9333 123.733 64 125.333 64H146.666C148.266 64 149.333 62.9333 149.333 61.3333C149.333 59.7333 148.266 58.6667 146.666 58.6667H138.666V53.0667C149.066 51.7333 157.333 42.9333 157.333 32Z" fill="white"/>
</mask>
<g mask="url(#mask1_341_6464)">
<rect x="104" width="64" height="64" fill="#B4B7BD"/>
</g>
</svg>
